<svg width="22" height="22" viewBox="0 0 22 22" fill="none" xmlns="http://www.w3.org/2000/svg">
<path d="M15.015 20.8542H2.97001C2.09918 20.8542 1.29252 20.4509 0.770019 19.7451C0.238352 19.0301 0.0825267 18.1317 0.34836 17.2792L4.20752 4.87668C4.55585 3.72168 5.6192 2.93335 6.8292 2.93335H18.1042C19.2134 2.93335 20.2125 3.59343 20.6342 4.6201C20.8634 5.15176 20.9092 5.75678 20.7717 6.35261L17.6825 18.755C17.3892 19.9925 16.2892 20.8542 15.015 20.8542ZM6.83835 4.31753C6.24251 4.31753 5.70169 4.71175 5.52752 5.28925L1.66836 17.6918C1.54003 18.1226 1.61335 18.5718 1.88835 18.9384C2.14502 19.2868 2.54836 19.4884 2.97919 19.4884H15.0242C15.6567 19.4884 16.2067 19.0576 16.3534 18.4434L19.4425 6.03169C19.5158 5.72919 19.4975 5.42673 19.3784 5.1609C19.1584 4.6384 18.6725 4.30835 18.1134 4.30835H6.83835V4.31753Z" fill="#54545C"/>
<path d="M19.0484 20.8542H14.6667C14.2909 20.8542 13.9792 20.5425 13.9792 20.1667C13.9792 19.7908 14.2909 19.4792 14.6667 19.4792H19.0484C19.4242 19.4792 19.7726 19.3234 20.0293 19.0484C20.2859 18.7734 20.4142 18.4067 20.3867 18.0309L19.4792 5.54589C19.4517 5.17006 19.7359 4.84001 20.1118 4.81251C20.4876 4.79418 20.8176 5.06912 20.8451 5.44496L21.7526 17.9301C21.8076 18.6817 21.5418 19.4334 21.0284 19.9834C20.5243 20.5426 19.8001 20.8542 19.0484 20.8542Z" fill="#54545C"/>
<path d="M8.8732 6.53577C8.8182 6.53577 8.76321 6.52659 8.70821 6.51742C8.34154 6.42576 8.11238 6.05906 8.20405 5.68323L9.15736 1.72327C9.24903 1.35661 9.6157 1.1274 9.99153 1.21906C10.3582 1.31073 10.5874 1.67743 10.4957 2.05326L9.54238 6.01332C9.46904 6.32499 9.18487 6.53577 8.8732 6.53577Z" fill="#54545C"/>
<path d="M15.0148 6.54501C14.969 6.54501 14.914 6.54499 14.8682 6.52666C14.5015 6.44416 14.2632 6.07748 14.3365 5.71081L15.1981 1.73251C15.2806 1.35668 15.6473 1.12755 16.014 1.20088C16.3807 1.27422 16.619 1.64995 16.5456 2.01662L15.684 5.99503C15.6198 6.32503 15.3357 6.54501 15.0148 6.54501Z" fill="#54545C"/>
<path d="M14.3919 11.6875H7.05859C6.68276 11.6875 6.37109 11.3758 6.37109 11C6.37109 10.6242 6.68276 10.3125 7.05859 10.3125H14.3919C14.7678 10.3125 15.0794 10.6242 15.0794 11C15.0794 11.3758 14.7678 11.6875 14.3919 11.6875Z" fill="#54545C"/>
<path d="M13.4752 15.3541H6.14185C5.76601 15.3541 5.45435 15.0425 5.45435 14.6666C5.45435 14.2908 5.76601 13.9791 6.14185 13.9791H13.4752C13.851 13.9791 14.1627 14.2908 14.1627 14.6666C14.1627 15.0425 13.851 15.3541 13.4752 15.3541Z" fill="#54545C"/>
</svg>
