<svg width="22" height="22" viewBox="0 0 22 22" fill="none" xmlns="http://www.w3.org/2000/svg">
<path d="M18.333 10.7709H3.66633C3.4555 10.7709 3.263 10.6792 3.13467 10.5142C3.00633 10.3584 2.95133 10.1384 2.99717 9.93674L4.033 4.98674C4.37216 3.38257 5.05966 1.90674 7.78216 1.90674H14.2263C16.9488 1.90674 17.6363 3.39174 17.9755 4.98674L19.0113 9.9459C19.0572 10.1476 19.0022 10.3584 18.8738 10.5234C18.7363 10.6792 18.5438 10.7709 18.333 10.7709ZM4.50967 9.3959H17.4805L16.6188 5.2709C16.3622 4.07007 16.0597 3.28174 14.2172 3.28174H7.78216C5.93966 3.28174 5.63716 4.07007 5.3805 5.2709L4.50967 9.3959Z" fill="#54545C"/>
<path d="M18.2963 20.8542H16.573C15.088 20.8542 14.8038 20.0017 14.6205 19.4425L14.4371 18.8925C14.1988 18.1959 14.1713 18.1042 13.3463 18.1042H8.65296C7.82796 18.1042 7.77296 18.26 7.56213 18.8925L7.3788 19.4425C7.1863 20.0109 6.9113 20.8542 5.4263 20.8542H3.70296C2.9788 20.8542 2.28213 20.5517 1.7963 20.02C1.31963 19.4975 1.09046 18.8009 1.15463 18.1042L1.66796 12.5217C1.80546 11.0092 2.2088 9.39587 5.1513 9.39587H16.848C19.7905 9.39587 20.1846 11.0092 20.3313 12.5217L20.8446 18.1042C20.9088 18.8009 20.6796 19.4975 20.203 20.02C19.7171 20.5517 19.0205 20.8542 18.2963 20.8542ZM8.65296 16.7292H13.3463C15.0146 16.7292 15.4088 17.4717 15.7388 18.4434L15.9313 19.0117C16.0871 19.4792 16.0871 19.4884 16.5821 19.4884H18.3055C18.6446 19.4884 18.9655 19.3509 19.1946 19.1034C19.4146 18.865 19.5155 18.5625 19.488 18.2417L18.9746 12.6592C18.8555 11.4217 18.7088 10.78 16.8663 10.78H5.1513C3.29963 10.78 3.15296 11.4217 3.04296 12.6592L2.52963 18.2417C2.50213 18.5625 2.60296 18.865 2.82296 19.1034C3.04296 19.3509 3.37296 19.4884 3.71213 19.4884H5.43546C5.93046 19.4884 5.93046 19.4792 6.0863 19.0209L6.26963 18.4617C6.4988 17.7284 6.83796 16.7292 8.65296 16.7292Z" fill="#54545C"/>
<path d="M3.66618 8.02094H2.74951C2.37368 8.02094 2.06201 7.70927 2.06201 7.33344C2.06201 6.9576 2.37368 6.64594 2.74951 6.64594H3.66618C4.04201 6.64594 4.35368 6.9576 4.35368 7.33344C4.35368 7.70927 4.04201 8.02094 3.66618 8.02094Z" fill="#54545C"/>
<path d="M19.2497 8.02094H18.333C17.9572 8.02094 17.6455 7.70927 17.6455 7.33344C17.6455 6.9576 17.9572 6.64594 18.333 6.64594H19.2497C19.6255 6.64594 19.9372 6.9576 19.9372 7.33344C19.9372 7.70927 19.6255 8.02094 19.2497 8.02094Z" fill="#54545C"/>
<path d="M10.9995 5.27089C10.6237 5.27089 10.312 4.95923 10.312 4.58339V2.75006C10.312 2.37423 10.6237 2.06256 10.9995 2.06256C11.3753 2.06256 11.687 2.37423 11.687 2.75006V4.58339C11.687 4.95923 11.3753 5.27089 10.9995 5.27089Z" fill="#54545C"/>
<path d="M12.3745 5.27094H9.62451C9.24868 5.27094 8.93701 4.95927 8.93701 4.58344C8.93701 4.2076 9.24868 3.89594 9.62451 3.89594H12.3745C12.7503 3.89594 13.062 4.2076 13.062 4.58344C13.062 4.95927 12.7503 5.27094 12.3745 5.27094Z" fill="#54545C"/>
<path d="M8.24951 14.4376H5.49951C5.12368 14.4376 4.81201 14.1259 4.81201 13.7501C4.81201 13.3742 5.12368 13.0626 5.49951 13.0626H8.24951C8.62535 13.0626 8.93701 13.3742 8.93701 13.7501C8.93701 14.1259 8.62535 14.4376 8.24951 14.4376Z" fill="#54545C"/>
<path d="M16.4995 14.4376H13.7495C13.3737 14.4376 13.062 14.1259 13.062 13.7501C13.062 13.3742 13.3737 13.0626 13.7495 13.0626H16.4995C16.8753 13.0626 17.187 13.3742 17.187 13.7501C17.187 14.1259 16.8753 14.4376 16.4995 14.4376Z" fill="#54545C"/>
</svg>
