<svg width="8" height="8" viewBox="0 0 8 8" fill="none" xmlns="http://www.w3.org/2000/svg">
<path d="M4.00008 7.58341C2.02341 7.58341 0.416748 5.97675 0.416748 4.00008C0.416748 2.02341 2.02341 0.416748 4.00008 0.416748C5.97675 0.416748 7.58341 2.02341 7.58341 4.00008C7.58341 5.97675 5.97675 7.58341 4.00008 7.58341ZM4.00008 0.916748C2.30008 0.916748 0.916748 2.30008 0.916748 4.00008C0.916748 5.70008 2.30008 7.08341 4.00008 7.08341C5.70008 7.08341 7.08341 5.70008 7.08341 4.00008C7.08341 2.30008 5.70008 0.916748 4.00008 0.916748Z" fill="#484850"/>
<path d="M5.23655 5.31008C5.19322 5.31008 5.14988 5.30008 5.10988 5.27342L4.07655 4.65675C3.81988 4.50342 3.62988 4.16675 3.62988 3.87008V2.50342C3.62988 2.36675 3.74322 2.25342 3.87988 2.25342C4.01655 2.25342 4.12988 2.36675 4.12988 2.50342V3.87008C4.12988 3.99008 4.22988 4.16675 4.33322 4.22675L5.36655 4.84342C5.48655 4.91342 5.52322 5.06675 5.45322 5.18675C5.40322 5.26675 5.31988 5.31008 5.23655 5.31008Z" fill="#484850"/>
</svg>
