<svg width="22" height="22" viewBox="0 0 22 22" fill="none" xmlns="http://www.w3.org/2000/svg">
<path d="M18.6815 19.3692C18.4982 19.3692 18.324 19.2959 18.1957 19.1675L12.3473 13.3192C12.0815 13.0534 12.0815 12.6134 12.3473 12.3475L19.4332 5.2617C19.6073 5.08753 19.8732 5.02336 20.1115 5.08753C20.3498 5.16086 20.5331 5.35336 20.5881 5.5917C20.7623 6.37086 20.854 7.24169 20.854 8.25003V13.75C20.854 16.2892 20.3223 18.0034 19.1673 19.1675C19.039 19.2959 18.8465 19.3234 18.6815 19.3692ZM13.8048 12.8334L18.6265 17.655C19.204 16.7659 19.479 15.5009 19.479 13.75V8.25003C19.479 7.87419 19.4698 7.52586 19.4423 7.19586L13.8048 12.8334Z" fill="#54545C"/>
<path d="M5.74741 20.6066C5.69241 20.6066 5.64659 20.5975 5.59159 20.5883C2.55742 19.8917 1.14575 17.7191 1.14575 13.75V8.24998C1.14575 3.27248 3.27242 1.14581 8.24992 1.14581H13.7499C17.7191 1.14581 19.8916 2.55749 20.5882 5.59165C20.6432 5.82082 20.5699 6.06832 20.4049 6.23332L6.23324 20.405C6.10491 20.5333 5.93074 20.6066 5.74741 20.6066ZM8.24992 2.52081C4.02409 2.52081 2.52075 4.02415 2.52075 8.24998V13.75C2.52075 16.9308 3.40076 18.5258 5.53659 19.1583L19.1491 5.54582C18.5258 3.40998 16.9216 2.52997 13.7407 2.52997H8.24992V2.52081Z" fill="#54545C"/>
<path d="M13.7499 20.8542H8.24985C7.24152 20.8542 6.37986 20.7717 5.59153 20.5883C5.34403 20.5333 5.15151 20.35 5.08734 20.1117C5.01401 19.8733 5.08735 19.6167 5.26151 19.4333L12.3474 12.3475C12.6132 12.0817 13.0532 12.0817 13.319 12.3475L19.1674 18.1958C19.2957 18.3242 19.369 18.4983 19.369 18.6817C19.369 18.865 19.2957 19.0392 19.1674 19.1675C18.0032 20.3225 16.289 20.8542 13.7499 20.8542ZM7.19569 19.4425C7.52569 19.47 7.87402 19.4792 8.24985 19.4792H13.7499C15.5099 19.4792 16.7657 19.2042 17.6549 18.6267L12.8332 13.805L7.19569 19.4425Z" fill="#54545C"/>
<path d="M8.36003 12.2008C7.78253 12.2008 7.20502 11.99 6.74669 11.5592C5.28919 10.175 4.70254 8.65334 5.05087 7.16834C5.39921 5.64667 6.72836 4.62 8.36003 4.62C9.99169 4.62 11.3209 5.64667 11.6692 7.16834C12.0084 8.66251 11.4217 10.175 9.96419 11.5592C9.51503 11.9808 8.93753 12.2008 8.36003 12.2008ZM6.3892 7.47083C6.09587 8.7175 6.93919 9.83584 7.70003 10.56C8.07586 10.9175 8.65336 10.9175 9.02003 10.56C9.7717 9.84501 10.615 8.72666 10.3309 7.47083C10.0834 6.38 9.11169 5.98583 8.36003 5.98583C7.60836 5.98583 6.64587 6.38 6.3892 7.47083Z" fill="#54545C"/>
<path d="M8.38737 8.69918C7.8832 8.69918 7.4707 8.28668 7.4707 7.78251C7.4707 7.27834 7.87404 6.86584 8.38737 6.86584H8.39655C8.90071 6.86584 9.31321 7.27834 9.31321 7.78251C9.31321 8.28668 8.89154 8.69918 8.38737 8.69918Z" fill="#54545C"/>
</svg>
