<svg width="22" height="22" viewBox="0 0 22 22" fill="none" xmlns="http://www.w3.org/2000/svg">
<path d="M13.6494 16.7017H5.59192C5.11525 16.7017 4.66608 16.6559 4.26274 16.5642C4.05191 16.5367 3.79525 16.4633 3.52942 16.3625C2.31025 15.9042 0.871094 14.7767 0.871094 11.9717V7.25083C0.871094 4.25333 2.59442 2.53003 5.59192 2.53003H13.6494C16.1794 2.53003 17.8111 3.74 18.2511 5.94C18.3336 6.34334 18.3703 6.77416 18.3703 7.25083V11.9717C18.3703 14.9875 16.6561 16.7017 13.6494 16.7017ZM5.60107 3.92338C3.34607 3.92338 2.25524 5.01418 2.25524 7.26918V11.99C2.25524 13.6309 2.83275 14.6392 4.01525 15.0884C4.19859 15.1525 4.37276 15.1983 4.53776 15.2258C4.88609 15.2992 5.22524 15.3358 5.60107 15.3358H13.6586C15.9136 15.3358 17.0044 14.245 17.0044 11.99V7.26918C17.0044 6.88418 16.9769 6.54501 16.9128 6.23334C16.6011 4.67501 15.5377 3.92338 13.6586 3.92338H5.60107Z" fill="#54545C"/>
<path d="M16.3992 19.4516H8.34167C7.5625 19.4516 6.86583 19.3416 6.26999 19.1125C4.92249 18.6083 4.04248 17.545 3.73998 16.0233C3.69415 15.7941 3.7675 15.5558 3.9325 15.4C4.0975 15.235 4.33584 15.1708 4.56501 15.2258C4.86751 15.29 5.20667 15.3266 5.59167 15.3266H13.6492C15.9042 15.3266 16.995 14.2358 16.995 11.9808V7.25998C16.995 6.87498 16.9675 6.53581 16.9033 6.22414C16.8575 5.99497 16.9308 5.76581 17.0867 5.60081C17.2517 5.43581 17.4808 5.36247 17.71 5.41747C19.91 5.86664 21.12 7.49831 21.12 10.01V14.7308C21.12 17.7375 19.4058 19.4516 16.3992 19.4516ZM5.42668 16.7016C5.72001 17.2333 6.16 17.6092 6.765 17.8292C7.205 17.9942 7.73665 18.0766 8.35082 18.0766H16.4083C18.6633 18.0766 19.7542 16.9858 19.7542 14.7308V10.01C19.7542 8.56165 19.305 7.59915 18.3792 7.09499C18.3792 7.14999 18.3792 7.20498 18.3792 7.25998V11.9808C18.3792 14.9783 16.6558 16.7016 13.6583 16.7016H5.60082C5.53665 16.7016 5.48168 16.7016 5.42668 16.7016Z" fill="#54545C"/>
<path d="M9.62485 12.7325C7.91068 12.7325 6.51733 11.3391 6.51733 9.62497C6.51733 7.9108 7.91068 6.51746 9.62485 6.51746C11.339 6.51746 12.7324 7.9108 12.7324 9.62497C12.7324 11.3391 11.339 12.7325 9.62485 12.7325ZM9.62485 7.89246C8.67151 7.89246 7.89233 8.67164 7.89233 9.62497C7.89233 10.5783 8.67151 11.3575 9.62485 11.3575C10.5782 11.3575 11.3574 10.5783 11.3574 9.62497C11.3574 8.67164 10.5782 7.89246 9.62485 7.89246Z" fill="#54545C"/>
<path d="M4.38184 12.3293C4.006 12.3293 3.69434 12.0176 3.69434 11.6418V7.6084C3.69434 7.23257 4.006 6.9209 4.38184 6.9209C4.75767 6.9209 5.06934 7.23257 5.06934 7.6084V11.6418C5.06934 12.0176 4.76684 12.3293 4.38184 12.3293Z" fill="#54545C"/>
<path d="M14.8591 12.3293C14.4833 12.3293 14.1716 12.0176 14.1716 11.6418V7.6084C14.1716 7.23257 14.4833 6.9209 14.8591 6.9209C15.235 6.9209 15.5466 7.23257 15.5466 7.6084V11.6418C15.5466 12.0176 15.2441 12.3293 14.8591 12.3293Z" fill="#54545C"/>
</svg>
