<svg width="267" height="204" viewBox="0 0 267 204" fill="none" xmlns="http://www.w3.org/2000/svg">
<path d="M202.248 27.2923C202.248 27.2923 176.114 -1.32114 134.737 0.0475841C93.3608 1.4163 58.067 29.141 28.888 50.8329C-0.290956 72.5249 -8.11312 106.217 8.84897 132.522C25.8111 158.826 52.8414 147.753 87.2524 164.826C121.663 181.899 128.2 191.597 166.532 187.446C204.864 183.294 234.043 140.831 229.694 95.5985C225.345 50.3659 202.248 27.2923 202.248 27.2923Z" fill="#B3E9FE"/>
<path opacity="0.7" d="M202.248 27.2923C202.248 27.2923 176.114 -1.32114 134.737 0.0475841C93.3608 1.4163 58.067 29.141 28.888 50.833C-0.290956 72.5249 -8.11312 106.217 8.84897 132.522C25.8111 158.826 52.8414 147.753 87.2524 164.826C121.663 181.899 128.2 191.597 166.532 187.446C204.864 183.294 234.043 140.831 229.694 95.5985C225.345 50.3659 202.248 27.2923 202.248 27.2923Z" fill="#B3E9FE"/>
<path d="M138.132 204C209.304 204 267 200.855 267 196.975C267 193.095 209.304 189.95 138.132 189.95C66.9607 189.95 9.26465 193.095 9.26465 196.975C9.26465 200.855 66.9607 204 138.132 204Z" fill="#898A8D"/>
<path opacity="0.3" d="M138.132 204C209.304 204 267 200.855 267 196.975C267 193.095 209.304 189.95 138.132 189.95C66.9607 189.95 9.26465 193.095 9.26465 196.975C9.26465 200.855 66.9607 204 138.132 204Z" fill="white"/>
<path d="M214.29 91.0838C214.251 91.0838 214.738 88.6642 214.79 88.489C215.348 86.7635 217.451 83.7537 219.483 83.7601C219.821 83.7698 220.153 83.8504 220.457 83.9967C220.762 84.143 221.032 84.3517 221.251 84.6093C221.47 84.8669 221.631 85.1675 221.726 85.4918C221.821 85.816 221.846 86.1565 221.8 86.4911C221.651 87.9247 220.366 89.1377 219.204 89.8448C217.841 90.6946 214.29 91.0838 214.29 91.0838Z" fill="#00CC14"/>
<path d="M210.349 74.7954C212.264 75.483 213.219 79.0248 213.154 80.8411C213.154 80.9968 212.79 83.4358 212.758 83.4358H212.719C212.868 83.9937 213.03 84.597 213.193 85.2521C213.478 86.4717 213.79 87.8469 214.03 89.3778C214.309 91.0198 214.491 92.6768 214.575 94.3402C214.679 96.2016 214.616 98.0686 214.387 99.9188C214.384 99.9403 214.384 99.9622 214.387 99.9837C214.64 99.4453 215.387 97.9533 215.458 97.8431C216.458 96.3251 219.275 93.951 221.242 94.5218C221.564 94.6211 221.862 94.787 222.116 95.0087C222.371 95.2303 222.575 95.5029 222.717 95.8087C222.859 96.1145 222.935 96.4466 222.941 96.7837C222.946 97.1207 222.88 97.4551 222.748 97.7652C222.229 99.1015 220.671 99.9383 219.366 100.308C217.893 100.73 214.608 100.23 214.348 100.191C214.071 102.067 213.668 103.922 213.141 105.744C212.838 106.808 212.509 107.872 212.154 108.936C212.381 108.475 212.596 108.066 212.628 108.008C213.628 106.49 216.445 104.116 218.412 104.68C218.735 104.779 219.033 104.944 219.288 105.165C219.543 105.387 219.748 105.66 219.89 105.966C220.032 106.272 220.108 106.604 220.113 106.942C220.118 107.279 220.051 107.614 219.918 107.924C219.399 109.266 217.841 110.097 216.536 110.473C215.231 110.849 212.401 110.473 211.661 110.376C211.524 110.778 211.388 111.186 211.245 111.589C210.596 113.535 209.895 115.481 209.298 117.388C209.084 118.037 208.895 118.737 208.707 119.412C208.915 119.003 209.09 118.659 209.123 118.614C210.116 117.096 212.94 114.722 214.9 115.286C215.222 115.386 215.52 115.551 215.775 115.773C216.029 115.995 216.234 116.267 216.376 116.573C216.519 116.878 216.596 117.21 216.602 117.547C216.608 117.884 216.544 118.219 216.412 118.53C215.893 119.866 214.329 120.703 213.024 121.072C211.719 121.442 209.168 121.118 208.285 120.995C208.11 121.695 207.941 122.389 207.805 123.07C207.72 123.537 207.61 123.985 207.552 124.459C207.493 124.932 207.422 125.393 207.357 125.847C207.266 126.735 207.162 127.657 207.097 128.526C207.045 129.129 207.006 129.706 206.967 130.284C207.169 129.635 207.617 128.299 207.649 128.188C208.37 126.763 209.442 125.544 210.765 124.647C210.837 124.484 210.926 124.33 211.031 124.186C211.215 123.903 211.456 123.662 211.74 123.478C212.023 123.294 212.342 123.172 212.676 123.119C213.009 123.067 213.35 123.085 213.676 123.173C214.003 123.26 214.307 123.415 214.569 123.628C216.114 124.926 215.724 128.61 215.017 130.284C214.978 130.381 214.4 131.399 214.03 132.035C214.309 131.698 214.569 131.386 214.861 131.01C215.426 130.323 216.01 129.648 216.633 128.921L217.587 127.89C217.899 127.533 218.276 127.202 218.62 126.859C219.431 126.074 220.294 125.315 221.184 124.569C220.573 124.076 218.451 122.279 217.841 121.059C217.23 119.84 216.795 118.134 217.432 116.849C217.571 116.541 217.773 116.265 218.026 116.04C218.279 115.815 218.577 115.646 218.9 115.544C219.223 115.442 219.563 115.409 219.9 115.447C220.236 115.485 220.561 115.594 220.853 115.766C222.573 116.843 222.748 120.508 222.3 122.253C222.3 122.363 221.807 123.589 221.541 124.257C222.079 123.816 222.612 123.369 223.17 122.96C224.78 121.715 226.448 120.508 228.104 119.295L229.616 118.173C229.402 117.998 226.831 115.922 226.143 114.56C225.539 113.347 225.098 111.634 225.734 110.343C225.874 110.035 226.077 109.76 226.33 109.536C226.583 109.312 226.881 109.143 227.203 109.041C227.526 108.939 227.866 108.905 228.203 108.943C228.539 108.981 228.863 109.089 229.155 109.26C230.875 110.343 231.051 114.008 230.603 115.747C230.57 115.883 229.902 117.647 229.707 118.088C230.817 117.258 231.914 116.428 232.953 115.565C234.375 114.404 235.719 113.152 236.977 111.816C236.88 111.738 234.186 109.584 233.485 108.183C232.875 106.97 232.44 105.258 233.076 103.973C233.214 103.665 233.416 103.389 233.669 103.164C233.921 102.939 234.218 102.77 234.541 102.668C234.863 102.566 235.203 102.533 235.539 102.571C235.875 102.609 236.199 102.718 236.49 102.89C238.217 103.967 238.392 107.632 237.945 109.377C237.912 109.487 237.406 110.836 237.146 111.472L237.25 111.53C238.481 110.152 239.587 108.668 240.554 107.093C241.093 106.237 241.567 105.387 242.008 104.544C241.463 104.194 239.003 102.598 238.23 101.378C237.458 100.159 236.873 98.589 237.36 97.2398C237.465 96.9223 237.635 96.6301 237.859 96.3818C238.084 96.1336 238.357 95.9348 238.663 95.7981C238.968 95.6614 239.298 95.5898 239.633 95.5878C239.968 95.5859 240.299 95.6536 240.606 95.7867C242.443 96.6689 243.014 100.295 242.761 102.092C242.761 102.189 242.502 103.169 242.313 103.882C242.502 103.5 242.709 103.11 242.885 102.741C243.534 101.352 244.085 100.042 244.54 98.8485C244.799 98.1998 245.014 97.5511 245.189 97.0127C244.832 96.3641 243.443 93.8666 243.306 92.472C243.17 91.0773 243.391 89.3648 244.449 88.3918C244.69 88.1552 244.979 87.9721 245.296 87.8543C245.612 87.7365 245.951 87.6867 246.288 87.7081C246.625 87.7295 246.955 87.8217 247.254 87.9786C247.553 88.1355 247.816 88.3536 248.026 88.6188C249.246 90.247 248.084 93.7239 247.033 95.2094C246.942 95.3327 245.286 97.1555 245.267 97.1555V97.1165C245.085 97.6679 244.89 98.2582 244.657 98.8939C244.228 100.068 243.722 101.398 243.086 102.786C242.408 104.308 241.643 105.789 240.794 107.223C239.849 108.83 238.763 110.349 237.549 111.764L237.503 111.816C238.009 111.498 239.451 110.674 239.574 110.622C241.249 109.909 244.897 109.5 246.234 111.037C246.448 111.298 246.605 111.601 246.695 111.927C246.785 112.252 246.805 112.593 246.755 112.926C246.705 113.26 246.585 113.58 246.404 113.864C246.223 114.149 245.983 114.393 245.702 114.579C244.527 115.409 242.761 115.228 241.469 114.832C240.009 114.371 237.575 112.147 237.347 111.971C236.081 113.383 234.722 114.707 233.277 115.935C232.433 116.661 231.57 117.362 230.681 118.05C231.129 117.797 231.531 117.569 231.589 117.544C233.258 116.83 236.906 116.421 238.243 117.959C238.458 118.219 238.616 118.522 238.707 118.848C238.797 119.173 238.818 119.514 238.768 119.848C238.717 120.182 238.597 120.502 238.415 120.787C238.233 121.071 237.993 121.315 237.711 121.501C236.542 122.331 234.777 122.149 233.485 121.754C232.193 121.358 230.031 119.49 229.473 118.99L228.454 119.775C226.818 121.027 225.208 122.266 223.618 123.531C223.066 123.978 222.54 124.439 222.008 124.893C222.411 124.666 222.742 124.478 222.8 124.459C224.468 123.738 228.117 123.336 229.454 124.867C229.67 125.127 229.829 125.43 229.92 125.756C230.011 126.082 230.032 126.423 229.981 126.757C229.931 127.092 229.811 127.412 229.628 127.696C229.445 127.981 229.205 128.224 228.921 128.409C227.747 129.239 225.987 129.058 224.696 128.668C223.404 128.279 221.45 126.58 220.801 125.989C220.275 126.476 219.743 126.956 219.256 127.455C218.925 127.799 218.607 128.104 218.282 128.474C217.957 128.844 217.633 129.174 217.347 129.525C216.782 130.212 216.192 130.926 215.653 131.613C215.276 132.087 214.926 132.548 214.575 133.008C215.114 132.561 216.205 131.711 216.302 131.639C217.841 130.679 221.385 129.726 222.943 131.036C223.194 131.262 223.396 131.539 223.533 131.848C223.671 132.157 223.742 132.492 223.742 132.83C223.742 133.168 223.671 133.502 223.533 133.811C223.396 134.12 223.194 134.397 222.943 134.623C221.911 135.616 220.145 135.726 218.808 135.519C217.328 135.285 214.653 133.573 214.322 133.326C213.738 134.091 213.18 134.844 212.66 135.564C210.862 138.048 209.46 140.183 208.499 141.694L208.402 141.843L207.156 141.24C207.221 141.143 207.286 141.052 207.35 140.948C208.357 139.443 209.824 137.315 211.693 134.844C212.284 134.065 212.927 133.242 213.595 132.398C212.899 131.642 212.249 130.845 211.648 130.011C210.213 130.569 207.234 130.595 206.851 130.595C206.792 131.555 206.74 132.489 206.701 133.371C206.571 136.44 206.584 138.995 206.617 140.779V140.993L205.247 140.345C205.247 138.574 205.319 136.167 205.5 133.332C205.559 132.353 205.643 131.309 205.741 130.245C205.358 130.147 202.261 129.35 201.093 128.415C200.035 127.572 198.918 126.197 198.957 124.763C198.953 124.425 199.021 124.09 199.156 123.78C199.291 123.47 199.49 123.192 199.74 122.964C199.991 122.736 200.286 122.564 200.607 122.458C200.929 122.352 201.269 122.316 201.606 122.35C203.624 122.61 205.312 125.866 205.65 127.65C205.65 127.754 205.754 128.947 205.793 129.661C205.838 129.22 205.87 128.798 205.916 128.364C206.007 127.475 206.124 126.586 206.247 125.633C206.318 125.179 206.396 124.718 206.468 124.251C206.539 123.784 206.662 123.304 206.76 122.824C207.006 121.721 207.305 120.612 207.636 119.503C206.857 119.418 204.098 119.094 202.91 118.419C201.722 117.745 200.424 116.551 200.249 115.13C200.193 114.796 200.209 114.455 200.296 114.127C200.382 113.8 200.537 113.495 200.749 113.231C200.962 112.968 201.228 112.752 201.53 112.599C201.832 112.445 202.163 112.358 202.501 112.341C204.533 112.289 206.701 115.254 207.299 116.966C207.337 117.076 207.63 118.354 207.772 119.061C207.98 118.413 208.175 117.725 208.422 117.064C209.071 115.117 209.804 113.21 210.518 111.284C210.739 110.693 210.947 110.103 211.167 109.519C210.888 109.519 207.597 109.176 206.273 108.417C205.098 107.768 203.787 106.548 203.605 105.128C203.552 104.794 203.569 104.453 203.656 104.126C203.743 103.8 203.898 103.495 204.11 103.232C204.323 102.97 204.588 102.754 204.889 102.6C205.19 102.446 205.52 102.357 205.857 102.338C207.896 102.287 210.064 105.251 210.661 106.964C210.707 107.093 211.122 108.91 211.206 109.409C211.674 108.112 212.135 106.814 212.505 105.517C213.054 103.765 213.487 101.98 213.803 100.172C213.673 100.172 210.233 99.8475 208.882 99.0691C207.701 98.4204 206.39 97.2009 206.214 95.7803C206.161 95.4466 206.179 95.1055 206.266 94.779C206.353 94.4525 206.508 94.1479 206.72 93.885C206.932 93.622 207.198 93.4066 207.498 93.2526C207.799 93.0985 208.129 93.0094 208.467 92.9909C210.499 92.9455 212.667 95.9035 213.264 97.616C213.303 97.7328 213.621 99.1339 213.757 99.8021H213.874C214.142 97.9749 214.247 96.1275 214.186 94.2818C214.186 93.2634 214.089 92.2968 213.991 91.3497C213.342 91.3497 210.395 91.3497 209.097 90.7919C207.798 90.234 206.416 89.2091 206.078 87.8144C205.988 87.4877 205.968 87.1457 206.019 86.8107C206.071 86.4758 206.192 86.1555 206.376 85.8707C206.56 85.586 206.802 85.3432 207.086 85.1584C207.37 84.9735 207.691 84.8507 208.026 84.798C210.044 84.5256 212.524 87.2306 213.31 88.8718C213.349 88.9626 213.686 89.9162 213.913 90.6102C213.868 90.1886 213.822 89.7475 213.764 89.3453C213.563 87.8209 213.277 86.4327 213.017 85.2132C212.862 84.5191 212.712 83.9158 212.563 83.3126C211.914 82.9882 209.369 81.6519 208.493 80.5686C207.617 79.4853 206.851 77.935 207.195 76.5403C207.269 76.2079 207.413 75.895 207.617 75.6222C207.821 75.3495 208.081 75.1232 208.379 74.9582C208.677 74.7933 209.007 74.6935 209.347 74.6654C209.686 74.6373 210.028 74.6816 210.349 74.7954Z" fill="#00CC14"/>
<path d="M247.143 106.146C245.552 106.081 242.372 104.453 242.372 104.447C242.372 104.44 244.079 102.682 244.202 102.585C245.624 101.45 249.038 100.1 250.733 101.223C251.009 101.418 251.241 101.669 251.414 101.959C251.587 102.25 251.697 102.574 251.737 102.909C251.776 103.245 251.745 103.586 251.645 103.908C251.545 104.231 251.378 104.53 251.154 104.784C250.246 105.874 248.499 106.198 247.143 106.146Z" fill="#00CC14"/>
<g opacity="0.5">
<path d="M214.29 91.0838C214.251 91.0838 214.738 88.6642 214.79 88.489C215.348 86.7635 217.451 83.7537 219.483 83.7601C219.821 83.7698 220.153 83.8504 220.457 83.9967C220.762 84.143 221.032 84.3517 221.251 84.6093C221.47 84.8669 221.631 85.1675 221.726 85.4918C221.821 85.816 221.846 86.1565 221.8 86.4911C221.651 87.9247 220.366 89.1377 219.204 89.8448C217.841 90.6946 214.29 91.0838 214.29 91.0838Z" fill="#00CC14"/>
<path d="M210.349 74.7954C212.264 75.483 213.219 79.0248 213.154 80.8411C213.154 80.9968 212.79 83.4358 212.758 83.4358H212.719C212.868 83.9937 213.03 84.597 213.193 85.2521C213.478 86.4717 213.79 87.8469 214.03 89.3778C214.309 91.0198 214.491 92.6768 214.575 94.3402C214.679 96.2016 214.616 98.0686 214.387 99.9188C214.384 99.9403 214.384 99.9622 214.387 99.9837C214.64 99.4453 215.387 97.9533 215.458 97.8431C216.458 96.3251 219.275 93.951 221.242 94.5218C221.564 94.6211 221.862 94.787 222.116 95.0087C222.371 95.2303 222.575 95.5029 222.717 95.8087C222.859 96.1145 222.935 96.4466 222.941 96.7837C222.946 97.1207 222.88 97.4551 222.748 97.7652C222.229 99.1015 220.671 99.9383 219.366 100.308C217.893 100.73 214.608 100.23 214.348 100.191C214.071 102.067 213.668 103.922 213.141 105.744C212.838 106.808 212.509 107.872 212.154 108.936C212.381 108.475 212.596 108.066 212.628 108.008C213.628 106.49 216.445 104.116 218.412 104.68C218.735 104.779 219.033 104.944 219.288 105.165C219.543 105.387 219.748 105.66 219.89 105.966C220.032 106.272 220.108 106.604 220.113 106.942C220.118 107.279 220.051 107.614 219.918 107.924C219.399 109.266 217.841 110.097 216.536 110.473C215.231 110.849 212.401 110.473 211.661 110.376C211.524 110.778 211.388 111.186 211.245 111.589C210.596 113.535 209.895 115.481 209.298 117.388C209.084 118.037 208.895 118.737 208.707 119.412C208.915 119.003 209.09 118.659 209.123 118.614C210.116 117.096 212.94 114.722 214.9 115.286C215.222 115.386 215.52 115.551 215.775 115.773C216.029 115.995 216.234 116.267 216.376 116.573C216.519 116.878 216.596 117.21 216.602 117.547C216.608 117.884 216.544 118.219 216.412 118.53C215.893 119.866 214.329 120.703 213.024 121.072C211.719 121.442 209.168 121.118 208.285 120.995C208.11 121.695 207.941 122.389 207.805 123.07C207.72 123.537 207.61 123.985 207.552 124.459C207.493 124.932 207.422 125.393 207.357 125.847C207.266 126.735 207.162 127.657 207.097 128.526C207.045 129.129 207.006 129.706 206.967 130.284C207.169 129.635 207.617 128.299 207.649 128.188C208.37 126.763 209.442 125.544 210.765 124.647C210.837 124.484 210.926 124.33 211.031 124.186C211.215 123.903 211.456 123.662 211.74 123.478C212.023 123.294 212.342 123.172 212.676 123.119C213.009 123.067 213.35 123.085 213.676 123.173C214.003 123.26 214.307 123.415 214.569 123.628C216.114 124.926 215.724 128.61 215.017 130.284C214.978 130.381 214.4 131.399 214.03 132.035C214.309 131.698 214.569 131.386 214.861 131.01C215.426 130.323 216.01 129.648 216.633 128.921L217.587 127.89C217.899 127.533 218.276 127.202 218.62 126.859C219.431 126.074 220.294 125.315 221.184 124.569C220.573 124.076 218.451 122.279 217.841 121.059C217.23 119.84 216.795 118.134 217.432 116.849C217.571 116.541 217.773 116.265 218.026 116.04C218.279 115.815 218.577 115.646 218.9 115.544C219.223 115.442 219.563 115.409 219.9 115.447C220.236 115.485 220.561 115.594 220.853 115.766C222.573 116.843 222.748 120.508 222.3 122.253C222.3 122.363 221.807 123.589 221.541 124.257C222.079 123.816 222.612 123.369 223.17 122.96C224.78 121.715 226.448 120.508 228.104 119.295L229.616 118.173C229.402 117.998 226.831 115.922 226.143 114.56C225.539 113.347 225.098 111.634 225.734 110.343C225.874 110.035 226.077 109.76 226.33 109.536C226.583 109.312 226.881 109.143 227.203 109.041C227.526 108.939 227.866 108.905 228.203 108.943C228.539 108.981 228.863 109.089 229.155 109.26C230.875 110.343 231.051 114.008 230.603 115.747C230.57 115.883 229.902 117.647 229.707 118.088C230.817 117.258 231.914 116.428 232.953 115.565C234.375 114.404 235.719 113.152 236.977 111.816C236.88 111.738 234.186 109.584 233.485 108.183C232.875 106.97 232.44 105.258 233.076 103.973C233.214 103.665 233.416 103.389 233.669 103.164C233.921 102.939 234.218 102.77 234.541 102.668C234.863 102.566 235.203 102.533 235.539 102.571C235.875 102.609 236.199 102.718 236.49 102.89C238.217 103.967 238.392 107.632 237.945 109.377C237.912 109.487 237.406 110.836 237.146 111.472L237.25 111.53C238.481 110.152 239.587 108.668 240.554 107.093C241.093 106.237 241.567 105.387 242.008 104.544C241.463 104.194 239.003 102.598 238.23 101.378C237.458 100.159 236.873 98.589 237.36 97.2398C237.465 96.9223 237.635 96.6301 237.859 96.3818C238.084 96.1336 238.357 95.9348 238.663 95.7981C238.968 95.6614 239.298 95.5898 239.633 95.5878C239.968 95.5859 240.299 95.6536 240.606 95.7867C242.443 96.6689 243.014 100.295 242.761 102.092C242.761 102.189 242.502 103.169 242.313 103.882C242.502 103.5 242.709 103.11 242.885 102.741C243.534 101.352 244.085 100.042 244.54 98.8485C244.799 98.1998 245.014 97.5511 245.189 97.0127C244.832 96.3641 243.443 93.8666 243.306 92.472C243.17 91.0773 243.391 89.3648 244.449 88.3918C244.69 88.1552 244.979 87.9721 245.296 87.8543C245.612 87.7365 245.951 87.6867 246.288 87.7081C246.625 87.7295 246.955 87.8217 247.254 87.9786C247.553 88.1355 247.816 88.3536 248.026 88.6188C249.246 90.247 248.084 93.7239 247.033 95.2094C246.942 95.3327 245.286 97.1555 245.267 97.1555V97.1165C245.085 97.6679 244.89 98.2582 244.657 98.8939C244.228 100.068 243.722 101.398 243.086 102.786C242.408 104.308 241.643 105.789 240.794 107.223C239.849 108.83 238.763 110.349 237.549 111.764L237.503 111.816C238.009 111.498 239.451 110.674 239.574 110.622C241.249 109.909 244.897 109.5 246.234 111.037C246.448 111.298 246.605 111.601 246.695 111.927C246.785 112.252 246.805 112.593 246.755 112.926C246.705 113.26 246.585 113.58 246.404 113.864C246.223 114.149 245.983 114.393 245.702 114.579C244.527 115.409 242.761 115.228 241.469 114.832C240.009 114.371 237.575 112.147 237.347 111.971C236.081 113.383 234.722 114.707 233.277 115.935C232.433 116.661 231.57 117.362 230.681 118.05C231.129 117.797 231.531 117.569 231.589 117.544C233.258 116.83 236.906 116.421 238.243 117.959C238.458 118.219 238.616 118.522 238.707 118.848C238.797 119.173 238.818 119.514 238.768 119.848C238.717 120.182 238.597 120.502 238.415 120.787C238.233 121.071 237.993 121.315 237.711 121.501C236.542 122.331 234.777 122.149 233.485 121.754C232.193 121.358 230.031 119.49 229.473 118.99L228.454 119.775C226.818 121.027 225.208 122.266 223.618 123.531C223.066 123.978 222.54 124.439 222.008 124.893C222.411 124.666 222.742 124.478 222.8 124.459C224.468 123.738 228.117 123.336 229.454 124.867C229.67 125.127 229.829 125.43 229.92 125.756C230.011 126.082 230.032 126.423 229.981 126.757C229.931 127.092 229.811 127.412 229.628 127.696C229.445 127.981 229.205 128.224 228.921 128.409C227.747 129.239 225.987 129.058 224.696 128.668C223.404 128.279 221.45 126.58 220.801 125.989C220.275 126.476 219.743 126.956 219.256 127.455C218.925 127.799 218.607 128.104 218.282 128.474C217.957 128.844 217.633 129.174 217.347 129.525C216.782 130.212 216.192 130.926 215.653 131.613C215.276 132.087 214.926 132.548 214.575 133.008C215.114 132.561 216.205 131.711 216.302 131.639C217.841 130.679 221.385 129.726 222.943 131.036C223.194 131.262 223.396 131.539 223.533 131.848C223.671 132.157 223.742 132.492 223.742 132.83C223.742 133.168 223.671 133.502 223.533 133.811C223.396 134.12 223.194 134.397 222.943 134.623C221.911 135.616 220.145 135.726 218.808 135.519C217.328 135.285 214.653 133.573 214.322 133.326C213.738 134.091 213.18 134.844 212.66 135.564C210.862 138.048 209.46 140.183 208.499 141.694L208.402 141.843L207.156 141.24C207.221 141.143 207.286 141.052 207.35 140.948C208.357 139.443 209.824 137.315 211.693 134.844C212.284 134.065 212.927 133.242 213.595 132.398C212.899 131.642 212.249 130.845 211.648 130.011C210.213 130.569 207.234 130.595 206.851 130.595C206.792 131.555 206.74 132.489 206.701 133.371C206.571 136.44 206.584 138.995 206.617 140.779V140.993L205.247 140.345C205.247 138.574 205.319 136.167 205.5 133.332C205.559 132.353 205.643 131.309 205.741 130.245C205.358 130.147 202.261 129.35 201.093 128.415C200.035 127.572 198.918 126.197 198.957 124.763C198.953 124.425 199.021 124.09 199.156 123.78C199.291 123.47 199.49 123.192 199.74 122.964C199.991 122.736 200.286 122.564 200.607 122.458C200.929 122.352 201.269 122.316 201.606 122.35C203.624 122.61 205.312 125.866 205.65 127.65C205.65 127.754 205.754 128.947 205.793 129.661C205.838 129.22 205.87 128.798 205.916 128.364C206.007 127.475 206.124 126.586 206.247 125.633C206.318 125.179 206.396 124.718 206.468 124.251C206.539 123.784 206.662 123.304 206.76 122.824C207.006 121.721 207.305 120.612 207.636 119.503C206.857 119.418 204.098 119.094 202.91 118.419C201.722 117.745 200.424 116.551 200.249 115.13C200.193 114.796 200.209 114.455 200.296 114.127C200.382 113.8 200.537 113.495 200.749 113.231C200.962 112.968 201.228 112.752 201.53 112.599C201.832 112.445 202.163 112.358 202.501 112.341C204.533 112.289 206.701 115.254 207.299 116.966C207.337 117.076 207.63 118.354 207.772 119.061C207.98 118.413 208.175 117.725 208.422 117.064C209.071 115.117 209.804 113.21 210.518 111.284C210.739 110.693 210.947 110.103 211.167 109.519C210.888 109.519 207.597 109.176 206.273 108.417C205.098 107.768 203.787 106.548 203.605 105.128C203.552 104.794 203.569 104.453 203.656 104.126C203.743 103.8 203.898 103.495 204.11 103.232C204.323 102.97 204.588 102.754 204.889 102.6C205.19 102.446 205.52 102.357 205.857 102.338C207.896 102.287 210.064 105.251 210.661 106.964C210.707 107.093 211.122 108.91 211.206 109.409C211.674 108.112 212.135 106.814 212.505 105.517C213.054 103.765 213.487 101.98 213.803 100.172C213.673 100.172 210.233 99.8475 208.882 99.0691C207.701 98.4204 206.39 97.2009 206.214 95.7803C206.161 95.4466 206.179 95.1055 206.266 94.779C206.353 94.4525 206.508 94.1479 206.72 93.885C206.932 93.622 207.198 93.4066 207.498 93.2526C207.799 93.0985 208.129 93.0094 208.467 92.9909C210.499 92.9455 212.667 95.9035 213.264 97.616C213.303 97.7328 213.621 99.1339 213.757 99.8021H213.874C214.142 97.9749 214.247 96.1275 214.186 94.2818C214.186 93.2634 214.089 92.2968 213.991 91.3497C213.342 91.3497 210.395 91.3497 209.097 90.7919C207.798 90.234 206.416 89.2091 206.078 87.8144C205.988 87.4877 205.968 87.1457 206.019 86.8107C206.071 86.4758 206.192 86.1555 206.376 85.8707C206.56 85.586 206.802 85.3432 207.086 85.1584C207.37 84.9735 207.691 84.8507 208.026 84.798C210.044 84.5256 212.524 87.2306 213.31 88.8718C213.349 88.9626 213.686 89.9162 213.913 90.6102C213.868 90.1886 213.822 89.7475 213.764 89.3453C213.563 87.8209 213.277 86.4327 213.017 85.2132C212.862 84.5191 212.712 83.9158 212.563 83.3126C211.914 82.9882 209.369 81.6519 208.493 80.5686C207.617 79.4853 206.851 77.935 207.195 76.5403C207.269 76.2079 207.413 75.895 207.617 75.6222C207.821 75.3495 208.081 75.1232 208.379 74.9582C208.677 74.7933 209.007 74.6935 209.347 74.6654C209.686 74.6373 210.028 74.6816 210.349 74.7954Z" fill="#00CC14"/>
<path d="M247.143 106.146C245.552 106.081 242.372 104.453 242.372 104.447C242.372 104.44 244.079 102.682 244.202 102.585C245.624 101.45 249.038 100.1 250.733 101.223C251.009 101.418 251.241 101.669 251.414 101.959C251.587 102.25 251.697 102.574 251.737 102.909C251.776 103.245 251.745 103.586 251.645 103.908C251.545 104.231 251.378 104.53 251.154 104.784C250.246 105.874 248.499 106.198 247.143 106.146Z" fill="#00CC14"/>
</g>
<path d="M228.571 145.949C228.571 145.949 218.918 122.694 213.517 123.706C208.116 124.718 222.767 160.772 222.767 160.772C222.767 160.772 205.786 128.759 194.205 128.759C182.625 128.759 198.451 164.145 213.115 175.938C213.115 175.938 189.96 151.002 176.451 156.393C162.943 161.784 203.468 187.056 203.468 187.056C203.468 187.056 179.924 179.642 182.625 185.37C185.325 191.098 192.66 192.11 192.66 192.11L166.045 193.459H258.678L237.834 191.435C237.834 191.435 259.451 180.654 253.66 176.275C247.87 171.897 235.134 181.328 235.134 181.328C235.134 181.328 257.133 157.068 252.888 147.967C248.642 138.866 229.726 164.482 229.726 164.482C229.726 164.482 245.169 131.795 242.06 126.067C238.951 120.339 228.571 145.949 228.571 145.949Z" fill="#00CC14"/>
<path opacity="0.4" d="M228.571 145.949C228.571 145.949 218.918 122.694 213.517 123.706C208.116 124.718 222.767 160.772 222.767 160.772C222.767 160.772 205.786 128.759 194.205 128.759C182.625 128.759 198.451 164.145 213.115 175.938C213.115 175.938 189.96 151.002 176.451 156.393C162.943 161.784 203.468 187.056 203.468 187.056C203.468 187.056 179.924 179.642 182.625 185.37C185.325 191.098 192.66 192.11 192.66 192.11L166.045 193.459H258.678L237.834 191.435C237.834 191.435 259.451 180.654 253.66 176.275C247.87 171.897 235.134 181.328 235.134 181.328C235.134 181.328 257.133 157.068 252.888 147.967C248.642 138.866 229.726 164.482 229.726 164.482C229.726 164.482 245.169 131.795 242.06 126.067C238.951 120.339 228.571 145.949 228.571 145.949Z" fill="white"/>
<path d="M231.661 147.169C223.164 172.24 223.164 189.982 223.164 189.982C223.164 189.982 233.199 190.365 243.625 182.652" stroke="#263238" stroke-linecap="round" stroke-linejoin="round"/>
<path d="M227.415 160.674C225.663 153.178 223.339 145.826 220.463 138.684" stroke="#263238" stroke-linecap="round" stroke-linejoin="round"/>
<path d="M202.326 146.014L223.936 178.027C223.936 178.027 238.607 165.702 243.625 158.741" stroke="#263238" stroke-linecap="round" stroke-linejoin="round"/>
<path d="M223.553 185.746C223.553 185.746 200.781 174.945 191.518 168.796" stroke="#263238" stroke-linecap="round" stroke-linejoin="round"/>
<path d="M203.111 13.1121H133.757C130.918 13.1121 128.616 15.4122 128.616 18.2496V188.321C128.616 191.159 130.918 193.459 133.757 193.459H203.111C205.951 193.459 208.253 191.159 208.253 188.321V18.2496C208.253 15.4122 205.951 13.1121 203.111 13.1121Z" fill="white" stroke="#263238" stroke-linecap="round" stroke-linejoin="round"/>
<path d="M205.591 44.6835C205.311 44.6835 205.042 44.5721 204.843 44.3738C204.645 44.1755 204.533 43.9065 204.533 43.6261V29.4524C204.554 29.1854 204.675 28.9362 204.872 28.7544C205.068 28.5725 205.327 28.4716 205.595 28.4716C205.863 28.4716 206.121 28.5725 206.317 28.7544C206.514 28.9362 206.635 29.1854 206.656 29.4524V43.6002C206.658 43.7415 206.633 43.8819 206.581 44.0132C206.528 44.1446 206.45 44.2642 206.351 44.365C206.252 44.4659 206.134 44.546 206.003 44.6007C205.873 44.6553 205.733 44.6835 205.591 44.6835Z" fill="#263238"/>
<path d="M205.591 57.8128C205.311 57.8128 205.042 57.7014 204.843 57.5032C204.645 57.3049 204.533 57.0359 204.533 56.7555V48.8351C204.554 48.5681 204.675 48.3188 204.872 48.137C205.068 47.9552 205.327 47.8542 205.595 47.8542C205.863 47.8542 206.121 47.9552 206.317 48.137C206.514 48.3188 206.635 48.5681 206.656 48.8351V56.7555C206.654 57.0365 206.541 57.3054 206.342 57.5036C206.142 57.7017 205.873 57.8129 205.591 57.8128Z" fill="#263238"/>
<path d="M197.107 13.1121H127.753C124.913 13.1121 122.611 15.4122 122.611 18.2496V188.321C122.611 191.159 124.913 193.459 127.753 193.459H197.107C199.946 193.459 202.248 191.159 202.248 188.321V18.2496C202.248 15.4122 199.946 13.1121 197.107 13.1121Z" fill="#DBDBDB" stroke="#263238" stroke-width="2" stroke-linecap="round" stroke-linejoin="round"/>
<path d="M196.944 25.1193H127.915V179.804H196.944V25.1193Z" fill="#29A7FF"/>
<path d="M152.18 20.1763H170.557" stroke="white" stroke-width="3" stroke-linecap="round" stroke-linejoin="round"/>
<path d="M159.956 185.279C159.956 186.544 159.164 187.569 158.184 187.569C157.204 187.569 156.418 186.544 156.418 185.279C156.418 184.014 157.21 182.983 158.184 182.983C159.158 182.983 159.956 184.008 159.956 185.279Z" fill="white"/>
<path d="M162.43 63.612C169.041 63.612 174.4 57.3678 174.4 49.6653C174.4 41.9628 169.041 35.7186 162.43 35.7186C155.819 35.7186 150.459 41.9628 150.459 49.6653C150.459 57.3678 155.819 63.612 162.43 63.612Z" fill="white"/>
<path d="M162.43 49.4902C164.939 49.4902 166.974 47.1174 166.974 44.1905C166.974 41.2635 164.939 38.8907 162.43 38.8907C159.92 38.8907 157.886 41.2635 157.886 44.1905C157.886 47.1174 159.92 49.4902 162.43 49.4902Z" fill="#263238" stroke="#263238" stroke-linecap="round" stroke-linejoin="round"/>
<path d="M162.43 50.8978C157.886 50.8978 154.166 54.3813 154.166 58.682C154.17 59.0822 154.207 59.4815 154.276 59.8756C155.284 61.0511 156.535 61.9948 157.942 62.6418C159.35 63.2888 160.88 63.6238 162.43 63.6238C163.979 63.6238 165.51 63.2888 166.917 62.6418C168.324 61.9948 169.575 61.0511 170.583 59.8756C170.647 59.4809 170.682 59.0819 170.687 58.682C170.687 54.3813 166.987 50.8978 162.43 50.8978Z" fill="#263238" stroke="#263238" stroke-linecap="round" stroke-linejoin="round"/>
<path d="M176.984 110.414H147.876C147.106 110.384 146.379 110.049 145.856 109.484C145.332 108.918 145.055 108.168 145.085 107.398V89.4425C145.085 79.096 152.874 70.6761 162.43 70.6761C171.985 70.6761 179.768 79.109 179.768 89.4425V107.385C179.785 107.767 179.726 108.148 179.595 108.507C179.464 108.866 179.263 109.195 179.005 109.477C178.746 109.758 178.434 109.986 178.088 110.147C177.741 110.308 177.366 110.399 176.984 110.414ZM150.661 104.382H174.192V89.462C174.192 82.4432 168.915 76.7284 162.43 76.7284C155.945 76.7284 150.661 82.4432 150.661 89.462V104.382Z" fill="#263238"/>
<path d="M182.637 98.1608H142.222V136.368H182.637V98.1608Z" fill="white"/>
<path d="M168.317 124.465L165.318 117.258C165.982 116.757 166.518 116.107 166.884 115.362C167.251 114.616 167.437 113.795 167.428 112.964C167.428 110.09 165.279 107.774 162.624 107.774C159.969 107.774 157.827 110.097 157.827 112.964C157.817 113.794 158.002 114.615 158.368 115.361C158.733 116.107 159.268 116.757 159.931 117.258L156.938 124.465H168.317Z" fill="#263238" stroke="#263238" stroke-linecap="round" stroke-linejoin="round"/>
<path d="M150.116 170.703C150.178 170.749 150.253 170.774 150.33 170.774C150.385 170.774 150.439 170.761 150.488 170.735C150.537 170.709 150.578 170.671 150.609 170.625L196.945 107.645V106.451L150.064 170.21C150.035 170.246 150.013 170.287 150 170.331C149.987 170.375 149.982 170.422 149.987 170.467C149.992 170.513 150.006 170.558 150.028 170.598C150.05 170.638 150.08 170.674 150.116 170.703Z" fill="white"/>
<path d="M187.623 47.8101C187.595 47.8474 187.575 47.8899 187.564 47.935C187.553 47.9801 187.551 48.027 187.558 48.0729C187.566 48.1187 187.582 48.1627 187.606 48.2022C187.631 48.2417 187.663 48.276 187.701 48.3031C187.777 48.3571 187.871 48.3792 187.963 48.3647C188.055 48.3501 188.138 48.3001 188.194 48.2252L196.944 36.3349V35.1672L187.623 47.8101Z" fill="white"/>
<path d="M127.915 130.173L185.117 52.4417C185.172 52.366 185.195 52.2716 185.18 52.1791C185.166 52.0866 185.115 52.0038 185.039 51.9487C184.963 51.8937 184.869 51.8709 184.776 51.8855C184.684 51.9001 184.601 51.9509 184.546 52.0266L127.941 128.98L127.915 130.173Z" fill="white"/>
<path d="M144.74 178.371C144.796 178.37 144.85 178.356 144.899 178.332C144.949 178.307 144.992 178.271 145.026 178.228L148.272 173.843C148.299 173.805 148.319 173.763 148.33 173.718C148.341 173.673 148.343 173.626 148.336 173.58C148.329 173.534 148.312 173.49 148.288 173.451C148.264 173.411 148.232 173.377 148.194 173.35C148.118 173.296 148.023 173.274 147.931 173.288C147.839 173.303 147.756 173.353 147.7 173.428L144.455 177.806C144.427 177.843 144.406 177.885 144.395 177.93C144.383 177.975 144.381 178.022 144.387 178.068C144.394 178.113 144.41 178.157 144.434 178.197C144.457 178.237 144.489 178.272 144.526 178.299C144.587 178.347 144.663 178.373 144.74 178.371Z" fill="white"/>
<path d="M196.944 120.255L158.905 171.961C158.866 172.014 158.843 172.076 158.838 172.141C158.832 172.206 158.845 172.271 158.875 172.329C158.905 172.387 158.95 172.435 159.005 172.469C159.061 172.502 159.125 172.52 159.19 172.519C159.246 172.52 159.301 172.508 159.351 172.483C159.4 172.458 159.443 172.422 159.476 172.377L196.944 121.442V120.255Z" fill="white"/>
<path d="M63.3445 47.5832C63.9882 46.158 64.299 44.6053 64.2533 43.0424C64.2533 40.1428 60.7415 38.4627 56.6129 38.0021C52.4844 37.5415 50.6538 39.2216 51.264 40.292C51.8981 41.1747 52.6721 41.9481 53.5555 42.5818C53.5555 42.5818 49.4269 40.292 46.6746 42.1277C43.9222 43.9635 47.9014 43.1981 47.1355 45.0273C46.3695 46.8566 42.0916 46.0977 41.0205 50.9823C39.9494 55.8668 43.0069 60.7579 40.2545 62.8986C37.5022 65.0392 29.2191 62.1331 26.8043 67.4783C24.3895 72.8234 27.817 75.1976 22.0136 78.5578C16.2103 81.9179 11.9779 85.2003 13.6592 93.445C15.3405 101.69 20.8452 104.576 31.6988 101.664C42.5525 98.7512 41.7865 92.1931 45.3308 85.4468C48.8752 78.7005 54.3539 80.1016 56.0352 76.2809C57.7165 72.4601 55.5743 67.8804 55.7301 64.3646C55.8859 60.8487 59.3978 60.0898 60.7739 55.9317C62.1501 51.7736 63.3445 47.5832 63.3445 47.5832Z" fill="#263238" stroke="#263238" stroke-linecap="round" stroke-linejoin="round"/>
<path d="M14.9247 93.2893C14.6403 93.8636 14.4959 94.4972 14.5032 95.138" stroke="white" stroke-width="0.5" stroke-linecap="round" stroke-linejoin="round"/>
<path d="M57.4761 44.5538C57.4761 44.5538 55.5676 42.3483 59.2418 43.3732C63.8702 44.6706 58.4368 50.0222 56.3466 51.099C52.1531 53.2462 46.6095 52.5586 43.3637 56.4636C40.4166 59.9925 44.3959 63.6705 42.6302 66.4663C40.8645 69.2621 33.7954 67.6404 31.4455 71.0071C29.0956 74.3738 35.7104 81.6001 28.9398 85.57C24.0453 88.4437 18.6833 89.5464 16.0933 91.8233" stroke="white" stroke-width="0.5" stroke-linecap="round" stroke-linejoin="round"/>
<path d="M46.4993 57.6053C46.0981 58.5434 45.9764 59.5773 46.1487 60.5828C46.733 63.0802 50.1215 67.7897 47.0316 70.4363C43.9417 73.0829 38.6382 72.9337 37.7618 76.0344C36.8855 79.1351 38.6447 87.6523 35.704 91.6028C32.7634 95.5533 27.0185 95.2808 23.9286 97.9275C20.8387 100.574 21.2801 102.047 21.2801 102.047" stroke="white" stroke-width="0.5" stroke-linecap="round" stroke-linejoin="round"/>
<path d="M48.0566 54.6992C47.7894 55.0771 47.5426 55.469 47.3174 55.8733" stroke="white" stroke-width="0.5" stroke-linecap="round" stroke-linejoin="round"/>
<path d="M65.3244 93.0558L66.0709 98.8939C66.0709 98.8939 69.9657 102.786 72.8284 105.193C75.6912 107.599 83.0265 112.691 83.0265 112.691L79.3069 113.749C79.3069 113.749 67.1484 106.548 64.7466 105.965C62.3448 105.381 60.5467 101.917 59.8001 100.866C59.0536 99.815 63.3704 92.0049 65.3244 93.0558Z" fill="white" stroke="#263238" stroke-linecap="round" stroke-linejoin="round"/>
<path d="M72.7506 188.042C72.7506 188.042 76.4247 191.143 77.9437 192.181C79.4627 193.219 81.2349 193.686 80.9558 194.25C80.6766 194.815 79.9171 195.379 76.3404 194.899C72.7636 194.419 71.7314 193.206 71.0693 193.018C70.4072 192.83 68.8103 193.303 67.5899 192.551C66.3695 191.798 68.304 187.316 68.304 187.316C68.84 187.942 69.5805 188.359 70.3944 188.492C71.2082 188.625 72.0429 188.465 72.7506 188.042Z" fill="white" stroke="#263238" stroke-linecap="round" stroke-linejoin="round"/>
<path d="M80.9426 194.25C80.9455 194.22 80.9455 194.19 80.9426 194.16C78.8775 194.349 76.7951 194.153 74.8017 193.582C72.4907 193.037 71.8091 191.811 69.6085 191.811C68.745 191.819 67.8864 191.679 67.0704 191.396C67.0468 191.613 67.0764 191.831 67.1567 192.034C67.237 192.236 67.3656 192.416 67.5313 192.557C68.7517 193.31 70.3551 192.836 71.0107 193.024C71.6663 193.212 72.705 194.438 76.2817 194.905C79.8585 195.373 80.657 194.815 80.9426 194.25Z" fill="white" stroke="#263238" stroke-linecap="round" stroke-linejoin="round"/>
<path d="M53.5163 62.6715C53.5163 62.6715 54.2239 67.4328 53.3151 69.3529C52.4063 71.273 49.5631 71.4806 47.1353 71.8893C44.7075 72.298 39.1313 74.4192 39.735 79.8876C40.3387 85.3559 47.3365 97.2009 47.3365 100.542C47.3365 103.882 45.2073 105.601 42.8769 112.082C40.5465 118.562 40.8516 130.615 41.5786 138.412C42.1115 143.558 43.1286 148.642 44.6166 153.597C44.6166 153.597 38.7743 163.016 36.1777 167.064C33.5812 171.112 24.4932 188.737 24.4932 188.737C24.4932 188.737 24.4932 189.34 25.9083 189.748C26.9039 189.99 27.9339 190.059 28.9528 189.95C28.9528 189.95 46.3758 168.991 49.6215 165.449C52.8672 161.907 55.9052 155.719 56.3076 152.89C56.7101 150.062 56.2103 132.742 56.2103 132.742C56.2103 132.742 59.852 141.448 62.7017 145.904C64.4301 148.631 66.0162 151.446 67.4534 154.337C67.0543 158.002 67.0543 161.699 67.4534 165.364C68.161 170.424 67.5638 186.68 68.2713 187.997C68.9789 189.314 71.7248 188.762 72.335 188.159C72.9452 187.556 73.2308 183.618 73.2308 183.618C73.2308 183.618 74.4447 171.293 75.1782 165.494C75.9117 159.695 77.1256 154.758 76.7037 153.442C76.2818 152.125 73.7631 138.048 71.8351 131.386C69.9072 124.724 64.0454 112.25 62.7471 109.013C61.4489 105.776 60.7153 102.831 60.923 101.82C61.1308 100.808 65.0775 94.7359 66.1162 93.1142C66.7083 92.0148 67.0349 90.7923 67.0698 89.5443C67.1048 88.2964 66.8471 87.0575 66.3174 85.9268C65.1035 83.2931 66.3174 79.7448 66.1162 77.6236C65.9149 75.5025 62.7731 74.5813 61.1502 73.777C59.5274 72.9726 58.9172 71.1433 58.9172 69.6254C59.0163 68.3467 59.3255 67.0931 59.8325 65.9149C59.8325 65.9149 54.8341 62.6715 53.5163 62.6715Z" fill="#0285E0" stroke="#263238" stroke-linecap="round" stroke-linejoin="round"/>
<path d="M65.7985 84.331C65.2647 82.9755 64.8202 81.5865 64.4678 80.173" stroke="#263238" stroke-linecap="round" stroke-linejoin="round"/>
<path d="M52.6401 95.6051C52.6401 95.6051 54.4707 96.0073 58.1384 94.178" stroke="#263238" stroke-linecap="round" stroke-linejoin="round"/>
<path d="M71.8546 131.322C70.0175 124.939 64.5712 113.282 62.9419 109.435C55.1522 112.354 47.8688 109.863 44.4478 108.254C43.9545 109.331 43.4222 110.577 42.8769 112.082C40.5465 118.568 40.8516 130.614 41.5786 138.412C42.1115 143.558 43.1286 148.642 44.6166 153.597C44.6166 153.597 38.7743 163.016 36.1777 167.064C33.5812 171.112 24.4932 188.736 24.4932 188.736C24.4932 188.736 24.4932 189.34 25.9083 189.748C26.9039 189.99 27.9339 190.058 28.9528 189.949C28.9528 189.949 46.3758 168.991 49.6215 165.449C52.8672 161.907 55.9052 155.719 56.3076 152.89C56.7101 150.062 56.2103 132.742 56.2103 132.742C56.2103 132.742 59.852 141.447 62.7017 145.904C64.4301 148.631 66.0162 151.446 67.4534 154.337C67.0543 158.002 67.0543 161.699 67.4534 165.364C68.161 170.424 67.5638 186.68 68.2713 187.997C68.9789 189.314 71.7248 188.762 72.335 188.159C72.9452 187.556 73.2308 183.618 73.2308 183.618C73.2308 183.618 74.4447 171.293 75.1782 165.494C75.9117 159.695 77.1256 154.758 76.7037 153.442C76.2818 152.125 73.7826 138.003 71.8546 131.322Z" fill="#263238" stroke="#263238" stroke-linecap="round" stroke-linejoin="round"/>
<path d="M111.543 124.893V123.57H112.653V113.178H111.543H100.586H99.4757V123.57H100.586V124.893H99.4692V127.306H103.747V126.495H108.382V127.306H112.66V124.893H111.543Z" fill="#006996" stroke="#263238" stroke-linecap="round" stroke-linejoin="round"/>
<path d="M40.7217 110.071H117.165C117.471 110.071 117.765 110.192 117.982 110.409C118.198 110.626 118.32 110.919 118.32 111.225V113.548C118.32 113.854 118.198 114.148 117.982 114.364C117.765 114.581 117.471 114.702 117.165 114.702H40.7217V110.064V110.071Z" fill="#006996" stroke="#263238" stroke-linecap="round" stroke-linejoin="round"/>
<path d="M95.5875 109.377H90.9332C90.5783 109.377 90.2905 109.664 90.2905 110.019V114.761C90.2905 115.115 90.5783 115.403 90.9332 115.403H95.5875C95.9425 115.403 96.2302 115.115 96.2302 114.761V110.019C96.2302 109.664 95.9425 109.377 95.5875 109.377Z" fill="#006996" stroke="#263238" stroke-linecap="round" stroke-linejoin="round"/>
<path d="M43.1138 114.34C44.1908 107.768 39.7321 101.567 33.155 100.491C26.5779 99.4149 20.3729 103.87 19.2959 110.443C18.2188 117.015 22.6775 123.216 29.2547 124.292C35.8318 125.368 42.0367 120.913 43.1138 114.34Z" fill="#006996" stroke="#263238" stroke-linecap="round" stroke-linejoin="round"/>
<path d="M33.6854 112.361C34.385 112.026 34.9787 111.505 35.4012 110.855C35.8238 110.205 36.0589 109.451 36.0807 108.676C36.0807 106.308 33.8996 104.388 31.2056 104.388C28.5117 104.388 26.3306 106.334 26.3306 108.676C26.3509 109.451 26.5854 110.206 27.0081 110.856C27.4309 111.506 28.0254 112.027 28.7259 112.361C28.0258 112.696 27.4318 113.219 27.0093 113.87C26.5867 114.521 26.3519 115.276 26.3306 116.052C26.3306 118.419 28.5117 120.339 31.2056 120.339C33.8996 120.339 36.0807 118.393 36.0807 116.052C36.0579 115.276 35.8225 114.522 35.4001 113.871C34.9777 113.22 34.3846 112.698 33.6854 112.361Z" fill="white" stroke="#263238" stroke-linecap="round" stroke-linejoin="round"/>
<path d="M80.644 114.806C80.644 114.806 84.422 116.402 85.5905 116.402C86.759 116.402 88.1092 115.228 88.7778 113.807C89.4464 112.387 89.4269 111.712 89.031 112.049L88.1936 112.698C88.1936 112.698 88.8427 111.277 88.1092 111.446C87.6012 111.615 87.1796 111.976 86.9342 112.452C86.9342 112.452 86.8498 111.193 86.1812 111.803C85.7387 112.203 85.3444 112.654 85.0063 113.146C85.0063 113.146 84.9219 111.556 84.5 111.971C84.078 112.387 82.4941 114.651 82.4941 114.651L80.644 114.806Z" fill="white" stroke="#263238" stroke-linecap="round" stroke-linejoin="round"/>
<path d="M85.0065 113.132C85.0065 113.132 84.7533 115.143 83.5005 115.481L85.0065 113.132Z" fill="white"/>
<path d="M85.0065 113.132C85.0065 113.132 84.7533 115.143 83.5005 115.481" stroke="#263238" stroke-linecap="round" stroke-linejoin="round"/>
<path d="M86.9346 112.464C86.9346 112.464 86.2854 115.643 85.2598 116.149L86.9346 112.464Z" fill="white"/>
<path d="M86.9346 112.464C86.9346 112.464 86.2854 115.643 85.2598 116.149" stroke="#263238" stroke-linecap="round" stroke-linejoin="round"/>
<path d="M88.1938 112.711C87.8591 113.871 87.4089 114.994 86.8501 116.065L88.1938 112.711Z" fill="white"/>
<path d="M88.1938 112.711C87.8591 113.871 87.4089 114.994 86.8501 116.065" stroke="#263238" stroke-linecap="round" stroke-linejoin="round"/>
<path d="M60.91 73.5824C60.2562 73.1412 59.7267 72.5398 59.3721 71.8356C59.0174 71.1314 58.8496 70.3481 58.8847 69.5605C59.0011 68.3021 59.3212 67.0709 59.8325 65.9149C59.8325 65.9149 54.8665 62.6715 53.5488 62.6715C53.5488 62.6715 54.2563 67.4328 53.3475 69.3529C53.0497 69.9502 52.5639 70.4333 51.9648 70.7282C53.165 73.957 54.7914 77.0112 56.801 79.8097C58.625 82.0996 59.5144 77.2734 60.91 73.5824Z" fill="white" stroke="#263238" stroke-linecap="round" stroke-linejoin="round"/>
<path d="M45.5838 72.5444C44.345 72.7558 43.1724 73.252 42.1585 73.9939C41.1446 74.7358 40.3172 75.703 39.7415 76.8193C37.7421 80.6724 29.0047 98.1609 29.7512 99.2053C33.9966 105.173 49.4397 109.467 51.0106 111.037C52.5811 112.679 54.3048 114.167 56.1583 115.481C57.7292 116.48 60.8646 116.052 61.4358 115.766C62.0071 115.481 62.4355 114.196 61.4358 114.196C61.0539 114.201 60.6818 114.075 60.3817 113.839C60.0816 113.603 59.8717 113.271 59.787 112.899C59.6442 112.328 61.3579 113.47 62.2148 113.042C63.0717 112.614 60.2998 111.05 59.4429 110.337C58.5861 109.623 57.872 108.631 56.7295 108.631C55.587 108.631 53.4384 108.631 53.4384 108.631C53.4384 108.631 48.1803 104.823 44.9995 101.988C42.5245 99.7564 39.8248 97.7869 36.9437 96.1111L46.5834 80.2638" fill="#0285E0"/>
<path d="M45.5838 72.5444C44.345 72.7558 43.1724 73.252 42.1585 73.9939C41.1446 74.7358 40.3172 75.703 39.7415 76.8193C37.7421 80.6724 29.0047 98.1609 29.7512 99.2053C33.9966 105.173 49.4397 109.467 51.0106 111.037C52.5811 112.679 54.3048 114.167 56.1583 115.481C57.7292 116.48 60.8646 116.052 61.4358 115.766C62.0071 115.481 62.4355 114.196 61.4358 114.196C61.0539 114.201 60.6818 114.075 60.3817 113.839C60.0816 113.603 59.8717 113.271 59.787 112.899C59.6442 112.328 61.3579 113.47 62.2148 113.042C63.0717 112.614 60.2998 111.05 59.4429 110.337C58.5861 109.623 57.872 108.631 56.7295 108.631C55.587 108.631 53.4384 108.631 53.4384 108.631C53.4384 108.631 48.1803 104.823 44.9995 101.988C42.5245 99.7564 39.8248 97.7869 36.9437 96.1111L46.5834 80.2638" stroke="#263238" stroke-linecap="round" stroke-linejoin="round"/>
<path d="M59.4369 110.343C58.5801 109.63 57.866 108.637 56.7235 108.637C55.581 108.637 53.4324 108.637 53.4324 108.637C53.4324 108.637 48.1743 104.829 44.9935 101.995C42.5185 99.7629 39.8188 97.7934 36.9377 96.1176L40.7936 89.7735C38.8223 88.5811 36.5673 87.9383 34.2632 87.9117C31.6666 93.3218 29.3362 98.6669 29.7192 99.2313C33.9646 105.199 49.4077 109.493 50.9786 111.063C52.5491 112.705 54.2728 114.193 56.1263 115.507C57.6972 116.506 60.8326 116.078 61.4038 115.792C61.9751 115.507 62.4035 114.222 61.4038 114.222C61.0219 114.227 60.6498 114.101 60.3497 113.865C60.0496 113.629 59.8397 113.297 59.755 112.925C59.6122 112.354 61.3259 113.496 62.1828 113.068C63.0397 112.64 60.2938 111.063 59.4369 110.343Z" fill="white" stroke="#263238" stroke-linecap="round" stroke-linejoin="round"/>
<path d="M64.6623 55.6852C64.156 54.6732 64.156 53.8624 64.3572 52.4418C64.5584 51.0212 63.3446 47.5767 63.3446 47.5767C62.1047 49.7173 58.5214 50.9887 56.9375 51.4688C55.1913 52.0007 57.7425 53.2072 57.4698 54.8224C57.1972 56.4377 53.7113 57.3718 53.7113 57.3718C53.7113 57.3718 52.6921 55.2765 51.277 55.2765C49.8619 55.2765 48.8557 58.5199 49.6606 60.2389C49.8704 60.7151 50.2357 61.1061 50.6968 61.3477C51.158 61.5893 51.6875 61.6672 52.1988 61.5687C52.1988 61.5687 52.1014 64.6111 54.0229 65.5192C56.0731 66.4968 58.2119 67.2766 60.4104 67.848C61.6243 68.0491 62.8382 67.4458 63.3446 65.623C63.7405 63.786 64.0116 61.9244 64.156 60.0508C65.006 59.4951 65.7881 58.8419 66.4864 58.1048C66.9733 57.4042 65.1686 56.6971 64.6623 55.6852Z" fill="white" stroke="#263238" stroke-linecap="round" stroke-linejoin="round"/>
<path d="M62.6878 55.7307C62.6878 56.2885 62.5063 56.7361 62.2858 56.7361C62.0653 56.7361 61.8838 56.2885 61.8838 55.7307C61.8838 55.1728 62.0653 54.7252 62.2858 54.7252C62.5063 54.7252 62.6878 55.1728 62.6878 55.7307Z" fill="#263238"/>
<path d="M60.9429 54.057C60.9429 54.057 62.0204 52.844 62.8254 53.1164" stroke="#263238" stroke-linecap="round" stroke-linejoin="round"/>
<path d="M62.8252 62.3724C62.3388 62.5188 61.8224 62.5361 61.3272 62.4225C60.832 62.3088 60.375 62.0682 60.0015 61.7244" stroke="#263238" stroke-linecap="round" stroke-linejoin="round"/>
<path d="M24.539 188.736C24.539 188.736 22.1177 193.589 22.2086 194.25C22.2994 194.912 27.1031 198.389 29.3491 199.608C31.5952 200.828 35.6588 201.023 35.3732 199.329C35.0875 197.636 31.2316 196.508 30.2904 193.965C29.7891 192.649 29.3558 191.309 28.9921 189.949C27.423 189.973 25.8792 189.552 24.539 188.736Z" fill="white" stroke="#263238" stroke-linecap="round" stroke-linejoin="round"/>
<path d="M35.3857 199.355C33.6575 199.587 31.8988 199.338 30.303 198.635C26.8171 197.124 23.4415 194.036 22.5133 193.161C22.3484 193.51 22.2431 193.885 22.2017 194.27C22.299 194.918 27.0962 198.408 29.3422 199.628C31.5883 200.847 35.6194 201.016 35.3857 199.355Z" fill="white" stroke="#263238" stroke-linecap="round" stroke-linejoin="round"/>
</svg>
