<svg width="22" height="22" viewBox="0 0 22 22" fill="none" xmlns="http://www.w3.org/2000/svg">
<path d="M16.1516 8.81836H11.3391C10.9633 8.81836 10.6516 8.50669 10.6516 8.13086C10.6516 7.75503 10.9633 7.44336 11.3391 7.44336H16.1516C16.5274 7.44336 16.8391 7.75503 16.8391 8.13086C16.8391 8.50669 16.5366 8.81836 16.1516 8.81836Z" fill="#54545C"/>
<path d="M6.52676 9.51498C6.35259 9.51498 6.17843 9.45081 6.04093 9.31331L5.35343 8.62581C5.08759 8.35998 5.08759 7.91998 5.35343 7.65415C5.61926 7.38831 6.05926 7.38831 6.32509 7.65415L6.52676 7.85581L8.10343 6.27915C8.36926 6.01331 8.80926 6.01331 9.07509 6.27915C9.34093 6.54498 9.34093 6.98498 9.07509 7.25081L7.01259 9.31331C6.88426 9.44165 6.71009 9.51498 6.52676 9.51498Z" fill="#54545C"/>
<path d="M16.1516 15.235H11.3391C10.9633 15.235 10.6516 14.9233 10.6516 14.5475C10.6516 14.1717 10.9633 13.86 11.3391 13.86H16.1516C16.5274 13.86 16.8391 14.1717 16.8391 14.5475C16.8391 14.9233 16.5366 15.235 16.1516 15.235Z" fill="#54545C"/>
<path d="M6.52676 15.9317C6.35259 15.9317 6.17843 15.8675 6.04093 15.73L5.35343 15.0425C5.08759 14.7767 5.08759 14.3367 5.35343 14.0708C5.61926 13.805 6.05926 13.805 6.32509 14.0708L6.52676 14.2725L8.10343 12.6958C8.36926 12.43 8.80926 12.43 9.07509 12.6958C9.34093 12.9617 9.34093 13.4017 9.07509 13.6675L7.01259 15.73C6.88426 15.8583 6.71009 15.9317 6.52676 15.9317Z" fill="#54545C"/>
<path d="M13.7499 20.8541H8.24992C3.27242 20.8541 1.14575 18.7275 1.14575 13.75V8.24998C1.14575 3.27248 3.27242 1.14581 8.24992 1.14581H13.7499C18.7274 1.14581 20.8541 3.27248 20.8541 8.24998V13.75C20.8541 18.7275 18.7274 20.8541 13.7499 20.8541ZM8.24992 2.52081C4.02409 2.52081 2.52075 4.02415 2.52075 8.24998V13.75C2.52075 17.9758 4.02409 19.4791 8.24992 19.4791H13.7499C17.9758 19.4791 19.4791 17.9758 19.4791 13.75V8.24998C19.4791 4.02415 17.9758 2.52081 13.7499 2.52081H8.24992Z" fill="#54545C"/>
</svg>
