<svg width="14" height="14" viewBox="0 0 14 14" fill="none" xmlns="http://www.w3.org/2000/svg">
<path d="M1.16658 13.2708H12.8333C13.0724 13.2708 13.2708 13.0724 13.2708 12.8333C13.2708 12.5941 13.0724 12.3958 12.8333 12.3958H1.16658C0.927418 12.3958 0.729084 12.5941 0.729084 12.8333C0.729084 13.0724 0.927418 13.2708 1.16658 13.2708Z" fill="#3F3F46"/>
<path d="M5.54167 3.63392C6.09 3.63392 6.63833 3.52894 7.16333 3.31894C7.32667 3.25477 7.4375 3.09143 7.4375 2.9106V1.1606C7.4375 1.01476 7.3675 0.880599 7.245 0.798932C7.1225 0.717265 6.97083 0.699755 6.83667 0.752255C6.0025 1.08476 5.08083 1.08476 4.24667 0.752255C4.1125 0.699755 3.96083 0.717265 3.83833 0.798932C3.71583 0.880599 3.64583 1.01476 3.64583 1.1606V2.9106C3.64583 3.09143 3.75667 3.24894 3.92 3.31894C4.445 3.52894 4.99333 3.63392 5.54167 3.63392ZM6.5625 2.60725C5.8975 2.81142 5.18583 2.81142 4.52083 2.60725V1.76145C5.19167 1.92478 5.89167 1.92478 6.5625 1.76145V2.60725Z" fill="#3F3F46"/>
<path d="M7 5.10425C7.23917 5.10425 7.4375 4.90591 7.4375 4.66675V2.91675C7.4375 2.67758 7.23917 2.47925 7 2.47925C6.76083 2.47925 6.5625 2.67758 6.5625 2.91675V4.66675C6.5625 4.90591 6.76083 5.10425 7 5.10425Z" fill="#3F3F46"/>
<path d="M2.33317 13.2709H11.6665C11.9057 13.2709 12.104 13.0726 12.104 12.8334V6.41675C12.104 5.00508 11.3282 4.22925 9.9165 4.22925H4.08317C2.6715 4.22925 1.89567 5.00508 1.89567 6.41675V12.8334C1.89567 13.0726 2.094 13.2709 2.33317 13.2709ZM11.229 12.3959H2.77067V6.41675C2.77067 5.49508 3.1615 5.10425 4.08317 5.10425H9.9165C10.8382 5.10425 11.229 5.49508 11.229 6.41675V12.3959Z" fill="#3F3F46"/>
<path d="M2.67146 7.4375H11.3281C11.5673 7.4375 11.7656 7.23917 11.7656 7C11.7656 6.76083 11.5673 6.5625 11.3281 6.5625H2.67146C2.43229 6.5625 2.23396 6.76083 2.23396 7C2.23396 7.23917 2.43229 7.4375 2.67146 7.4375Z" fill="#3F3F46"/>
<path d="M8.90137 7H9.77637V12.8333H8.90137V7Z" fill="#3F3F46"/>
<path d="M6.56836 7H7.44336V12.8333H6.56836V7Z" fill="#3F3F46"/>
<path d="M4.23486 7H5.10986V12.8333H4.23486V7Z" fill="#3F3F46"/>
</svg>
