<svg width="18" height="18" viewBox="0 0 18 18" fill="none" xmlns="http://www.w3.org/2000/svg">
<path d="M1.5 17.0625H16.5C16.8075 17.0625 17.0625 16.8075 17.0625 16.5C17.0625 16.1925 16.8075 15.9375 16.5 15.9375H1.5C1.1925 15.9375 0.9375 16.1925 0.9375 16.5C0.9375 16.8075 1.1925 17.0625 1.5 17.0625Z" fill="black"/>
<path d="M7.125 4.67245C7.83 4.67245 8.535 4.53747 9.21 4.26747C9.42 4.18496 9.5625 3.97496 9.5625 3.74246V1.49246C9.5625 1.30496 9.4725 1.13246 9.315 1.02746C9.1575 0.92246 8.9625 0.899947 8.79 0.967447C7.7175 1.39495 6.5325 1.39495 5.46 0.967447C5.2875 0.899947 5.0925 0.92246 4.935 1.02746C4.7775 1.13246 4.6875 1.30496 4.6875 1.49246V3.74246C4.6875 3.97496 4.83 4.17746 5.04 4.26747C5.715 4.53747 6.42 4.67245 7.125 4.67245ZM8.4375 3.35244C7.5825 3.61494 6.6675 3.61494 5.8125 3.35244V2.26498C6.675 2.47498 7.575 2.47498 8.4375 2.26498V3.35244Z" fill="black"/>
<path d="M9 6.5625C9.3075 6.5625 9.5625 6.3075 9.5625 6V3.75C9.5625 3.4425 9.3075 3.1875 9 3.1875C8.6925 3.1875 8.4375 3.4425 8.4375 3.75V6C8.4375 6.3075 8.6925 6.5625 9 6.5625Z" fill="black"/>
<path d="M2.99975 17.0625H14.9998C15.3073 17.0625 15.5623 16.8075 15.5623 16.5V8.25C15.5623 6.435 14.5648 5.4375 12.7498 5.4375H5.24975C3.43475 5.4375 2.43725 6.435 2.43725 8.25V16.5C2.43725 16.8075 2.69226 17.0625 2.99975 17.0625ZM14.4373 15.9375H3.56225V8.25C3.56225 7.065 4.06475 6.5625 5.24975 6.5625H12.7498C13.9348 6.5625 14.4373 7.065 14.4373 8.25V15.9375Z" fill="black"/>
<path d="M3.43494 9.5625H14.5649C14.8724 9.5625 15.1274 9.3075 15.1274 9C15.1274 8.6925 14.8724 8.4375 14.5649 8.4375H3.43494C3.12744 8.4375 2.87244 8.6925 2.87244 9C2.87244 9.3075 3.12744 9.5625 3.43494 9.5625Z" fill="black"/>
<path d="M11.4446 9H12.5696V16.5H11.4446V9Z" fill="black"/>
<path d="M8.44482 9H9.56982V16.5H8.44482V9Z" fill="black"/>
<path d="M5.44482 9H6.56982V16.5H5.44482V9Z" fill="black"/>
</svg>
