<svg width="14" height="14" viewBox="0 0 14 14" fill="none" xmlns="http://www.w3.org/2000/svg">
<path d="M10.6109 10.3542H4.39841C3.82091 10.3542 3.26674 10.1093 2.87591 9.68342C2.48508 9.25758 2.28675 8.68591 2.33341 8.10841L2.81758 2.29842C2.83508 2.11758 2.77091 1.94258 2.64841 1.80842C2.52591 1.67425 2.35675 1.60425 2.17591 1.60425H1.16675C0.927581 1.60425 0.729248 1.40591 0.729248 1.16675C0.729248 0.927581 0.927581 0.729248 1.16675 0.729248H2.18175C2.60758 0.729248 3.01008 0.910079 3.29591 1.21925C3.45341 1.39425 3.57008 1.59842 3.63425 1.82592H10.9201C11.5092 1.82592 12.0517 2.05925 12.4484 2.47925C12.8392 2.90508 13.0376 3.45925 12.9909 4.04842L12.6759 8.42342C12.6117 9.49092 11.6784 10.3542 10.6109 10.3542ZM3.66341 2.69508L3.20841 8.17841C3.17925 8.51674 3.29008 8.83757 3.51758 9.08841C3.74508 9.33924 4.06008 9.47341 4.39841 9.47341H10.6109C11.2176 9.47341 11.7659 8.96008 11.8126 8.35342L12.1276 3.97842C12.1509 3.63425 12.0401 3.30759 11.8126 3.06842C11.5851 2.82342 11.2701 2.68924 10.9259 2.68924H3.66341V2.69508Z" fill="#3F3F46"/>
<path d="M9.47917 13.2708C8.8375 13.2708 8.3125 12.7458 8.3125 12.1042C8.3125 11.4625 8.8375 10.9375 9.47917 10.9375C10.1208 10.9375 10.6458 11.4625 10.6458 12.1042C10.6458 12.7458 10.1208 13.2708 9.47917 13.2708ZM9.47917 11.8125C9.31583 11.8125 9.1875 11.9408 9.1875 12.1042C9.1875 12.2675 9.31583 12.3958 9.47917 12.3958C9.6425 12.3958 9.77083 12.2675 9.77083 12.1042C9.77083 11.9408 9.6425 11.8125 9.47917 11.8125Z" fill="#3F3F46"/>
<path d="M4.81242 13.2708C4.17075 13.2708 3.64575 12.7458 3.64575 12.1042C3.64575 11.4625 4.17075 10.9375 4.81242 10.9375C5.45409 10.9375 5.97909 11.4625 5.97909 12.1042C5.97909 12.7458 5.45409 13.2708 4.81242 13.2708ZM4.81242 11.8125C4.64909 11.8125 4.52075 11.9408 4.52075 12.1042C4.52075 12.2675 4.64909 12.3958 4.81242 12.3958C4.97575 12.3958 5.10409 12.2675 5.10409 12.1042C5.10409 11.9408 4.97575 11.8125 4.81242 11.8125Z" fill="#3F3F46"/>
<path d="M12.25 5.10425H5.25C5.01083 5.10425 4.8125 4.90591 4.8125 4.66675C4.8125 4.42758 5.01083 4.22925 5.25 4.22925H12.25C12.4892 4.22925 12.6875 4.42758 12.6875 4.66675C12.6875 4.90591 12.4892 5.10425 12.25 5.10425Z" fill="#3F3F46"/>
</svg>
