<svg width="18" height="18" viewBox="0 0 18 18" fill="none" xmlns="http://www.w3.org/2000/svg">
<path d="M12.0002 17.0625H6.00017C2.53517 17.0625 1.89017 15.45 1.72517 13.8825L1.16267 7.87501C1.08017 7.08751 1.05767 5.92501 1.83767 5.05501C2.51267 4.30501 3.63017 3.94501 5.25017 3.94501H12.7502C14.3777 3.94501 15.4952 4.31251 16.1627 5.05501C16.9427 5.92501 16.9202 7.08751 16.8377 7.88251L16.2752 13.875C16.1102 15.45 15.4652 17.0625 12.0002 17.0625ZM5.25017 5.06251C3.98267 5.06251 3.11267 5.31001 2.67017 5.80501C2.30267 6.21001 2.18267 6.83251 2.28017 7.76251L2.84267 13.77C2.97017 14.955 3.29267 15.9375 6.00017 15.9375H12.0002C14.7002 15.9375 15.0302 14.955 15.1577 13.7625L15.7202 7.77001C15.8177 6.83251 15.6977 6.21001 15.3302 5.80501C14.8877 5.31001 14.0177 5.06251 12.7502 5.06251H5.25017Z" fill="black"/>
<path d="M12 5.0625C11.6925 5.0625 11.4375 4.8075 11.4375 4.5V3.9C11.4375 2.565 11.4375 2.0625 9.6 2.0625H8.4C6.5625 2.0625 6.5625 2.565 6.5625 3.9V4.5C6.5625 4.8075 6.3075 5.0625 6 5.0625C5.6925 5.0625 5.4375 4.8075 5.4375 4.5V3.9C5.4375 2.58 5.4375 0.9375 8.4 0.9375H9.6C12.5625 0.9375 12.5625 2.58 12.5625 3.9V4.5C12.5625 4.8075 12.3075 5.0625 12 5.0625Z" fill="black"/>
<path d="M9.00024 12.5625C6.93774 12.5625 6.93774 11.2875 6.93774 10.5225V9.75C6.93774 8.6925 7.19274 8.4375 8.25024 8.4375H9.75024C10.8077 8.4375 11.0627 8.6925 11.0627 9.75V10.5C11.0627 11.28 11.0627 12.5625 9.00024 12.5625ZM8.06274 9.5625C8.06274 9.6225 8.06274 9.69 8.06274 9.75V10.5225C8.06274 11.295 8.06274 11.4375 9.00024 11.4375C9.93774 11.4375 9.93774 11.3175 9.93774 10.515V9.75C9.93774 9.69 9.93774 9.6225 9.93774 9.5625C9.87774 9.5625 9.81024 9.5625 9.75024 9.5625H8.25024C8.19024 9.5625 8.12274 9.5625 8.06274 9.5625Z" fill="black"/>
<path d="M10.4999 11.0775C10.2224 11.0775 9.97488 10.8675 9.94488 10.5825C9.90738 10.275 10.1249 9.99 10.4324 9.9525C12.4124 9.705 14.3099 8.955 15.9074 7.7925C16.1549 7.605 16.5074 7.665 16.6949 7.92C16.8749 8.1675 16.8224 8.52 16.5674 8.7075C14.8124 9.9825 12.7424 10.8 10.5674 11.0775C10.5449 11.0775 10.5224 11.0775 10.4999 11.0775Z" fill="black"/>
<path d="M7.50005 11.085C7.47755 11.085 7.45505 11.085 7.43255 11.085C5.37755 10.8525 3.37505 10.1025 1.64255 8.91755C1.38755 8.74505 1.32005 8.39255 1.49255 8.13755C1.66505 7.88255 2.01755 7.81505 2.27255 7.98755C3.85505 9.06755 5.67755 9.75005 7.55255 9.96755C7.86005 10.005 8.08505 10.2825 8.04755 10.59C8.02505 10.875 7.78505 11.085 7.50005 11.085Z" fill="black"/>
</svg>
